<?xml version="1.0" encoding="UTF-8"?>
<!DOCTYPE svg PUBLIC "-//W3C//DTD SVG 1.1//EN" "http://www.w3.org/Graphics/SVG/1.1/DTD/svg11.dtd">
<svg xmlns="http://www.w3.org/2000/svg" version="1.1" width="144px" height="144px" style="shape-rendering:geometricPrecision; text-rendering:geometricPrecision; image-rendering:optimizeQuality; fill-rule:evenodd; clip-rule:evenodd" xmlns:xlink="http://www.w3.org/1999/xlink">
<g><path style="opacity:0.985" fill="#171925" d="M 59.5,-0.5 C 67.5,-0.5 75.5,-0.5 83.5,-0.5C 100.17,2.83466 114.17,10.8347 125.5,23.5C 116.167,23.5 106.833,23.5 97.5,23.5C 97.5,22.5 97.5,21.5 97.5,20.5C 94.6359,20.9358 92.3025,20.1025 90.5,18C 86.8333,17.6667 83.1667,17.3333 79.5,17C 81.1667,16.6667 82.8333,16.3333 84.5,16C 83.5,15.8333 82.5,15.6667 81.5,15.5C 75.2766,17.0697 68.9433,17.903 62.5,18C 61.9558,18.7172 61.2891,19.2172 60.5,19.5C 59.8333,19.5 59.1667,19.5 58.5,19.5C 58.9175,18.7784 59.5842,18.2784 60.5,18C 59.0692,17.5348 57.9025,16.7014 57,15.5C 55.9326,16.1905 54.7659,16.6905 53.5,17C 44.5062,17.4998 35.5062,17.6664 26.5,17.5C 26.5,18.5 26.5,19.5 26.5,20.5C 24.8007,20.4729 23.4674,19.8062 22.5,18.5C 33.0531,8.72333 45.3864,2.38999 59.5,-0.5 Z"/></g>
<g><path style="opacity:0.988" fill="#1c1c28" d="M 58.5,19.5 C 58.6168,21.4835 57.9501,23.1502 56.5,24.5C 56.7093,25.086 57.0426,25.586 57.5,26C 56.2062,28.087 55.0395,30.2537 54,32.5C 52.9243,35.079 51.091,36.7457 48.5,37.5C 44.302,36.6454 40.4687,37.6454 37,40.5C 33.8141,39.7185 30.4807,39.3852 27,39.5C 21.1792,42.3308 15.0126,43.9974 8.5,44.5C 6.97041,44.3601 5.97041,43.6935 5.5,42.5C 9.20361,33.0866 14.8703,25.0866 22.5,18.5C 23.4674,19.8062 24.8007,20.4729 26.5,20.5C 26.5,19.5 26.5,18.5 26.5,17.5C 35.5062,17.6664 44.5062,17.4998 53.5,17C 54.7659,16.6905 55.9326,16.1905 57,15.5C 57.9025,16.7014 59.0692,17.5348 60.5,18C 59.5842,18.2784 58.9175,18.7784 58.5,19.5 Z"/></g>
<g><path style="opacity:0.992" fill="#1c1c28" d="M 125.5,23.5 C 132.185,30.217 136.852,38.217 139.5,47.5C 139.209,48.6491 138.376,49.3158 137,49.5C 128.655,47.5926 120.321,45.5926 112,43.5C 109.922,44.943 109.089,44.2763 109.5,41.5C 106.223,41.7839 103.057,41.4505 100,40.5C 98.9125,42.9316 98.4125,42.5983 98.5,39.5C 96.1667,39.5 93.8333,39.5 91.5,39.5C 89.2972,39.3964 87.2972,38.7298 85.5,37.5C 85.7373,36.209 85.404,35.209 84.5,34.5C 83.8423,33.6016 83.1757,32.6016 82.5,31.5C 81.7348,32.6119 80.7348,33.2786 79.5,33.5C 73.8599,30.6799 68.1932,27.8466 62.5,25C 61.1387,23.4157 60.472,21.5824 60.5,19.5C 61.2891,19.2172 61.9558,18.7172 62.5,18C 68.9433,17.903 75.2766,17.0697 81.5,15.5C 82.5,15.6667 83.5,15.8333 84.5,16C 82.8333,16.3333 81.1667,16.6667 79.5,17C 83.1667,17.3333 86.8333,17.6667 90.5,18C 92.3025,20.1025 94.6359,20.9358 97.5,20.5C 97.5,21.5 97.5,22.5 97.5,23.5C 106.833,23.5 116.167,23.5 125.5,23.5 Z"/></g>
<g><path style="opacity:1" fill="#f3eeed" d="M 58.5,19.5 C 59.1667,19.5 59.8333,19.5 60.5,19.5C 60.472,21.5824 61.1387,23.4157 62.5,25C 68.1932,27.8466 73.8599,30.6799 79.5,33.5C 79.9175,34.2216 80.5842,34.7216 81.5,35C 78.0307,39.1179 75.5307,43.6179 74,48.5C 76.7571,45.5712 78.9238,42.2379 80.5,38.5C 81.2565,37.2267 81.9232,37.2267 82.5,38.5C 80.5856,43.3353 77.9189,47.6686 74.5,51.5C 72.6283,50.2054 70.9617,50.3721 69.5,52C 72.0356,52.1862 74.369,52.6862 76.5,53.5C 74.246,54.1237 72.5794,55.457 71.5,57.5C 64.1361,54.1499 56.8028,50.8166 49.5,47.5C 46.4669,45.984 43.8003,43.984 41.5,41.5C 44.0499,40.3964 46.3832,39.063 48.5,37.5C 51.091,36.7457 52.9243,35.079 54,32.5C 55.0395,30.2537 56.2062,28.087 57.5,26C 57.0426,25.586 56.7093,25.086 56.5,24.5C 57.9501,23.1502 58.6168,21.4835 58.5,19.5 Z"/></g>
<g><path style="opacity:1" fill="#b8a5a0" d="M 59.5,26.5 C 64.7009,28.0979 69.7009,30.2646 74.5,33C 70.0591,32.1279 65.7258,30.6279 61.5,28.5C 58.5848,32.5952 55.4181,36.5952 52,40.5C 54.5398,36.0548 57.0398,31.3881 59.5,26.5 Z"/></g>
<g><path style="opacity:1" fill="#eae5e3" d="M 85.5,37.5 C 87.2972,38.7298 89.2972,39.3964 91.5,39.5C 93.3691,40.1646 95.3691,40.8313 97.5,41.5C 95.8381,43.6517 93.8381,45.3183 91.5,46.5C 90.391,46.5569 89.391,46.8902 88.5,47.5C 88.0618,47.5654 87.7284,47.3988 87.5,47C 88.3805,46.2917 89.0472,45.4584 89.5,44.5C 92.1315,43.1327 91.7982,42.2994 88.5,42C 87.1667,40.6667 85.8333,39.3333 84.5,38C 84.7284,37.6012 85.0618,37.4346 85.5,37.5 Z"/></g>
<g><path style="opacity:1" fill="#b7a39b" d="M 84.5,34.5 C 84.3404,36.153 83.6737,37.4863 82.5,38.5C 81.9232,37.2267 81.2565,37.2267 80.5,38.5C 78.9238,42.2379 76.7571,45.5712 74,48.5C 75.5307,43.6179 78.0307,39.1179 81.5,35C 80.5842,34.7216 79.9175,34.2216 79.5,33.5C 80.7348,33.2786 81.7348,32.6119 82.5,31.5C 83.1757,32.6016 83.8423,33.6016 84.5,34.5 Z"/></g>
<g><path style="opacity:1" fill="#3e1c1f" d="M 84.5,34.5 C 85.404,35.209 85.7373,36.209 85.5,37.5C 85.0618,37.4346 84.7284,37.6012 84.5,38C 85.8333,39.3333 87.1667,40.6667 88.5,42C 91.7982,42.2994 92.1315,43.1327 89.5,44.5C 84.3489,46.5764 79.3489,48.9097 74.5,51.5C 77.9189,47.6686 80.5856,43.3353 82.5,38.5C 83.6737,37.4863 84.3404,36.153 84.5,34.5 Z"/></g>
<g><path style="opacity:0.995" fill="#232531" d="M 48.5,37.5 C 46.3832,39.063 44.0499,40.3964 41.5,41.5C 43.8003,43.984 46.4669,45.984 49.5,47.5C 49.5,47.8333 49.5,48.1667 49.5,48.5C 46.8021,48.8449 44.8021,50.1782 43.5,52.5C 41.5648,53.1495 39.5648,53.4828 37.5,53.5C 37.281,54.675 37.6143,55.675 38.5,56.5C 39.7387,56.9424 40.7387,57.6091 41.5,58.5C 41.5,58.8333 41.5,59.1667 41.5,59.5C 38.7916,61.3531 35.7916,62.3531 32.5,62.5C 31.7784,62.9175 31.2784,63.5842 31,64.5C 30.6667,63.5 30.3333,62.5 30,61.5C 29.5814,62.6721 28.9147,63.6721 28,64.5C 27.0656,63.1416 26.2323,61.8083 25.5,60.5C 23.5,57.8333 21.5,57.8333 19.5,60.5C 18.2848,61.779 18.6182,62.779 20.5,63.5C 19.2073,64.6448 18.0407,64.3115 17,62.5C 12.04,67.1044 6.20671,70.1044 -0.5,71.5C -0.5,67.5 -0.5,63.5 -0.5,59.5C 0.731718,53.5794 2.73172,47.9127 5.5,42.5C 5.97041,43.6935 6.97041,44.3601 8.5,44.5C 15.0126,43.9974 21.1792,42.3308 27,39.5C 30.4807,39.3852 33.8141,39.7185 37,40.5C 40.4687,37.6454 44.302,36.6454 48.5,37.5 Z"/></g>
<g><path style="opacity:0.991" fill="#20222e" d="M 91.5,39.5 C 93.8333,39.5 96.1667,39.5 98.5,39.5C 98.4125,42.5983 98.9125,42.9316 100,40.5C 103.057,41.4505 106.223,41.7839 109.5,41.5C 109.089,44.2763 109.922,44.943 112,43.5C 120.321,45.5926 128.655,47.5926 137,49.5C 138.376,49.3158 139.209,48.6491 139.5,47.5C 141.143,51.4086 142.476,55.4086 143.5,59.5C 143.5,63.1667 143.5,66.8333 143.5,70.5C 132.777,65.6901 122.111,60.6901 111.5,55.5C 108.566,56.7986 106.066,56.1319 104,53.5C 103.667,54.1667 103.333,54.8333 103,55.5C 101.951,53.8934 100.451,53.2267 98.5,53.5C 97.609,52.8902 96.609,52.5569 95.5,52.5C 94.8707,50.0029 93.204,48.6696 90.5,48.5C 90.8333,47.8333 91.1667,47.1667 91.5,46.5C 93.8381,45.3183 95.8381,43.6517 97.5,41.5C 95.3691,40.8313 93.3691,40.1646 91.5,39.5 Z"/></g>
<g><path style="opacity:1" fill="#ac9d9a" d="M 89.5,44.5 C 89.0472,45.4584 88.3805,46.2917 87.5,47C 87.7284,47.3988 88.0618,47.5654 88.5,47.5C 84.7697,49.8616 80.7697,51.8616 76.5,53.5C 74.369,52.6862 72.0356,52.1862 69.5,52C 70.9617,50.3721 72.6283,50.2054 74.5,51.5C 79.3489,48.9097 84.3489,46.5764 89.5,44.5 Z"/></g>
<g><path style="opacity:1" fill="#240e11" d="M 91.5,46.5 C 91.1667,47.1667 90.8333,47.8333 90.5,48.5C 90.7394,50.4672 90.4061,52.3005 89.5,54C 83.4936,56.3365 77.8269,59.1699 72.5,62.5C 72.1667,62.5 71.8333,62.5 71.5,62.5C 71.5,60.8333 71.5,59.1667 71.5,57.5C 72.5794,55.457 74.246,54.1237 76.5,53.5C 80.7697,51.8616 84.7697,49.8616 88.5,47.5C 89.391,46.8902 90.391,46.5569 91.5,46.5 Z"/></g>
<g><path style="opacity:0.997" fill="#2b2d3a" d="M 98.5,53.5 C 100.451,53.2267 101.951,53.8934 103,55.5C 103.333,54.8333 103.667,54.1667 104,53.5C 106.066,56.1319 108.566,56.7986 111.5,55.5C 122.111,60.6901 132.777,65.6901 143.5,70.5C 143.5,74.8333 143.5,79.1667 143.5,83.5C 141.254,93.567 137.254,102.9 131.5,111.5C 131.5,110.167 131.5,108.833 131.5,107.5C 131.5,106.833 131.5,106.167 131.5,105.5C 132.833,100.833 132.833,96.1667 131.5,91.5C 130.113,87.7921 127.446,85.4588 123.5,84.5C 125.124,81.6416 124.457,80.9749 121.5,82.5C 121.5,81.5 121.5,80.5 121.5,79.5C 123.429,79.7692 125.095,79.2692 126.5,78C 123.771,77.4339 121.771,75.9339 120.5,73.5C 121.625,72.3478 121.625,71.3478 120.5,70.5C 116.069,72.2146 111.735,74.2146 107.5,76.5C 106.5,76.1667 105.833,75.5 105.5,74.5C 106.665,73.4164 107.998,72.5831 109.5,72C 107.359,71.4275 105.359,70.5942 103.5,69.5C 103.217,68.7109 102.717,68.0442 102,67.5C 99.4196,71.5499 95.9196,72.8832 91.5,71.5C 91.1667,71.5 90.8333,71.5 90.5,71.5C 93.1667,69.8333 95.8333,68.1667 98.5,66.5C 101.423,65.705 104.09,64.3716 106.5,62.5C 102.874,62.0156 99.5404,60.8489 96.5,59C 98.3492,57.907 100.016,56.5737 101.5,55C 100.263,54.7679 99.2625,54.2679 98.5,53.5 Z"/></g>
<g><path style="opacity:1" fill="#4f1b1e" d="M 49.5,47.5 C 56.8028,50.8166 64.1361,54.1499 71.5,57.5C 71.5,59.1667 71.5,60.8333 71.5,62.5C 64.4161,59.7939 57.4161,56.7939 50.5,53.5C 49.0271,51.8311 48.6938,50.1645 49.5,48.5C 49.5,48.1667 49.5,47.8333 49.5,47.5 Z"/></g>
<g><path style="opacity:1" fill="#873c41" d="M 44.5,52.5 C 52.5986,56.038 60.5986,59.8713 68.5,64C 70.1966,64.3845 71.8632,64.2178 73.5,63.5C 72.8902,64.391 72.5569,65.391 72.5,66.5C 71.5,66.5 70.5,66.5 69.5,66.5C 61.3684,63.2667 53.3684,59.7667 45.5,56C 44.6634,54.9887 44.33,53.8221 44.5,52.5 Z"/></g>
<g><path style="opacity:1" fill="#833c41" d="M 90.5,48.5 C 93.204,48.6696 94.8707,50.0029 95.5,52.5C 88.206,56.147 80.8727,59.8136 73.5,63.5C 73.5,62.8333 73.1667,62.5 72.5,62.5C 77.8269,59.1699 83.4936,56.3365 89.5,54C 90.4061,52.3005 90.7394,50.4672 90.5,48.5 Z"/></g>
<g><path style="opacity:1" fill="#d17a7c" d="M 49.5,48.5 C 48.6938,50.1645 49.0271,51.8311 50.5,53.5C 57.4161,56.7939 64.4161,59.7939 71.5,62.5C 71.8333,62.5 72.1667,62.5 72.5,62.5C 73.1667,62.5 73.5,62.8333 73.5,63.5C 71.8632,64.2178 70.1966,64.3845 68.5,64C 60.5986,59.8713 52.5986,56.038 44.5,52.5C 44.1667,52.5 43.8333,52.5 43.5,52.5C 44.8021,50.1782 46.8021,48.8449 49.5,48.5 Z"/></g>
<g><path style="opacity:1" fill="#3c1117" d="M 95.5,52.5 C 95.6495,53.552 95.4828,54.552 95,55.5C 93.3484,56.3994 91.8484,57.3994 90.5,58.5C 84.4955,61.1692 78.4955,63.8358 72.5,66.5C 72.5569,65.391 72.8902,64.391 73.5,63.5C 80.8727,59.8136 88.206,56.147 95.5,52.5 Z"/></g>
<g><path style="opacity:1" fill="#ced9ca" d="M 25.5,60.5 C 23.5,60.5 21.5,60.5 19.5,60.5C 21.5,57.8333 23.5,57.8333 25.5,60.5 Z"/></g>
<g><path style="opacity:1" fill="#acde96" d="M 19.5,60.5 C 21.5,60.5 23.5,60.5 25.5,60.5C 25.5,61.5 25.5,62.5 25.5,63.5C 23.8333,63.5 22.1667,63.5 20.5,63.5C 18.6182,62.779 18.2848,61.779 19.5,60.5 Z"/></g>
<g><path style="opacity:1" fill="#623231" d="M 41.5,59.5 C 41.5,59.1667 41.5,58.8333 41.5,58.5C 45.9635,59.9012 50.2968,61.5679 54.5,63.5C 54.5,63.8333 54.5,64.1667 54.5,64.5C 51.1994,67.1523 47.8661,67.1523 44.5,64.5C 43.9986,62.3449 42.9986,60.6782 41.5,59.5 Z"/></g>
<g><path style="opacity:1" fill="#988787" d="M 90.5,58.5 C 90.0472,59.4584 89.3805,60.2917 88.5,61C 88.7284,61.3988 89.0618,61.5654 89.5,61.5C 87.1515,63.341 84.4848,64.6743 81.5,65.5C 81.44,64.9569 81.1067,64.6236 80.5,64.5C 76.9372,66.9399 73.2706,67.6065 69.5,66.5C 70.5,66.5 71.5,66.5 72.5,66.5C 78.4955,63.8358 84.4955,61.1692 90.5,58.5 Z"/></g>
<g><path style="opacity:1" fill="#c6bbba" d="M 95.5,52.5 C 96.609,52.5569 97.609,52.8902 98.5,53.5C 99.2625,54.2679 100.263,54.7679 101.5,55C 100.016,56.5737 98.3492,57.907 96.5,59C 99.5404,60.8489 102.874,62.0156 106.5,62.5C 104.09,64.3716 101.423,65.705 98.5,66.5C 98.9367,64.4048 97.9367,62.7382 95.5,61.5C 95.6309,60.6236 95.2975,59.9569 94.5,59.5C 92.9246,60.4565 91.258,61.1231 89.5,61.5C 89.0618,61.5654 88.7284,61.3988 88.5,61C 89.3805,60.2917 90.0472,59.4584 90.5,58.5C 91.8484,57.3994 93.3484,56.3994 95,55.5C 95.4828,54.552 95.6495,53.552 95.5,52.5 Z"/></g>
<g><path style="opacity:0.969" fill="#30323d" d="M 25.5,60.5 C 26.2323,61.8083 27.0656,63.1416 28,64.5C 28.9147,63.6721 29.5814,62.6721 30,61.5C 30.3333,62.5 30.6667,63.5 31,64.5C 31.2784,63.5842 31.7784,62.9175 32.5,62.5C 33.1293,64.9971 34.796,66.3304 37.5,66.5C 37.4431,67.609 37.1098,68.609 36.5,69.5C 34.5,70.5 32.5,71.5 30.5,72.5C 29.0101,70.7202 27.0101,70.0535 24.5,70.5C 23.8902,71.391 23.5569,72.391 23.5,73.5C 25.357,75.8447 27.6904,76.178 30.5,74.5C 31.4916,74.3284 32.1583,74.6618 32.5,75.5C 31.5084,75.3284 30.8417,75.6618 30.5,76.5C 28.7028,77.7298 26.7028,78.3964 24.5,78.5C 24.3893,77.8826 24.056,77.3826 23.5,77C 21.1667,76.3333 18.8333,76.3333 16.5,77C 15.2089,78.2917 15.2089,79.4583 16.5,80.5C 16.8333,81.1667 17.1667,81.8333 17.5,82.5C 15.7274,83.8923 13.7274,85.059 11.5,86C 9.53594,87.451 8.20261,89.2843 7.5,91.5C 6.51836,94.9619 6.18503,98.6286 6.5,102.5C 3.17169,96.5132 0.838355,90.1799 -0.5,83.5C -0.5,79.5 -0.5,75.5 -0.5,71.5C 6.20671,70.1044 12.04,67.1044 17,62.5C 18.0407,64.3115 19.2073,64.6448 20.5,63.5C 22.1667,63.5 23.8333,63.5 25.5,63.5C 25.5,62.5 25.5,61.5 25.5,60.5 Z"/></g>
<g><path style="opacity:1" fill="#b4e29d" d="M 26.5,67.5 C 23.5701,68.299 20.5701,68.6323 17.5,68.5C 17.5,67.5 17.5,66.5 17.5,65.5C 20.1873,65.3359 22.854,65.5026 25.5,66C 26.056,66.3826 26.3893,66.8826 26.5,67.5 Z"/></g>
<g><path style="opacity:1" fill="#67a757" d="M 26.5,67.5 C 26.2178,68.7777 25.5511,69.7777 24.5,70.5C 22.4727,70.6621 20.4727,70.4955 18.5,70C 17.944,69.6174 17.6107,69.1174 17.5,68.5C 20.5701,68.6323 23.5701,68.299 26.5,67.5 Z"/></g>
<g><path style="opacity:1" fill="#e3dad6" d="M 43.5,52.5 C 43.8333,52.5 44.1667,52.5 44.5,52.5C 44.33,53.8221 44.6634,54.9887 45.5,56C 53.3684,59.7667 61.3684,63.2667 69.5,66.5C 73.2706,67.6065 76.9372,66.9399 80.5,64.5C 81.1067,64.6236 81.44,64.9569 81.5,65.5C 78.1013,67.1993 74.768,68.866 71.5,70.5C 66.8561,69.6795 62.5227,68.0128 58.5,65.5C 57.4863,64.3263 56.153,63.6596 54.5,63.5C 50.2968,61.5679 45.9635,59.9012 41.5,58.5C 40.7387,57.6091 39.7387,56.9424 38.5,56.5C 37.6143,55.675 37.281,54.675 37.5,53.5C 39.5648,53.4828 41.5648,53.1495 43.5,52.5 Z"/></g>
<g><path style="opacity:1" fill="#8e5a54" d="M 60.5,77.5 C 58.9382,77.2671 57.6049,76.6005 56.5,75.5C 53.6245,70.9441 50.6245,70.6108 47.5,74.5C 47.1667,74.5 46.8333,74.5 46.5,74.5C 45.5946,73.2976 45.5946,71.9643 46.5,70.5C 48.3046,69.7629 49.9713,68.7629 51.5,67.5C 54.4979,70.8242 57.4979,74.1575 60.5,77.5 Z"/></g>
<g><path style="opacity:1" fill="#dfd5d1" d="M 41.5,59.5 C 42.9986,60.6782 43.9986,62.3449 44.5,64.5C 47.8661,67.1523 51.1994,67.1523 54.5,64.5C 55.9596,69.4737 59.2929,72.9737 64.5,75C 63.944,75.3826 63.6107,75.8826 63.5,76.5C 62.609,77.1098 61.609,77.4431 60.5,77.5C 57.4979,74.1575 54.4979,70.8242 51.5,67.5C 49.9713,68.7629 48.3046,69.7629 46.5,70.5C 43.5293,69.1734 40.5293,67.8401 37.5,66.5C 34.796,66.3304 33.1293,64.9971 32.5,62.5C 35.7916,62.3531 38.7916,61.3531 41.5,59.5 Z"/></g>
<g><path style="opacity:1" fill="#c2b3b0" d="M 54.5,64.5 C 54.5,64.1667 54.5,63.8333 54.5,63.5C 56.153,63.6596 57.4863,64.3263 58.5,65.5C 58.0618,65.4346 57.7284,65.6012 57.5,66C 59.8745,68.039 61.8745,70.3723 63.5,73C 65.8543,73.8471 68.1877,74.6805 70.5,75.5C 72.1667,76.1667 73.8333,76.8333 75.5,77.5C 72.676,77.9893 71.3426,79.656 71.5,82.5C 73.8568,82.6633 76.1902,82.4966 78.5,82C 80.0303,79.648 81.6969,77.4813 83.5,75.5C 84.0141,74.3754 84.3474,73.2087 84.5,72C 86.4558,70.3883 88.4558,70.2216 90.5,71.5C 90.8333,71.5 91.1667,71.5 91.5,71.5C 91.1667,72.1667 90.8333,72.8333 90.5,73.5C 88.4887,76.8611 86.4887,80.1944 84.5,83.5C 80.4445,85.9433 76.1112,87.9433 71.5,89.5C 71.5,87.5 71.5,85.5 71.5,83.5C 67.8183,83.3347 64.1516,83.5014 60.5,84C 62.5503,84.4162 63.8836,85.5829 64.5,87.5C 62.7162,87.1075 61.0495,86.4408 59.5,85.5C 59.5,84.8333 59.1667,84.5 58.5,84.5C 59.2899,83.2058 60.2899,82.0391 61.5,81C 70.8225,81.3564 71.4892,79.8564 63.5,76.5C 63.6107,75.8826 63.944,75.3826 64.5,75C 59.2929,72.9737 55.9596,69.4737 54.5,64.5 Z"/></g>
<g><path style="opacity:1" fill="#766565" d="M 95.5,61.5 C 97.9367,62.7382 98.9367,64.4048 98.5,66.5C 95.8333,68.1667 93.1667,69.8333 90.5,71.5C 88.4558,70.2216 86.4558,70.3883 84.5,72C 84.3474,73.2087 84.0141,74.3754 83.5,75.5C 83.44,74.9569 83.1067,74.6236 82.5,74.5C 80.2612,75.7878 77.9279,76.7878 75.5,77.5C 73.8333,76.8333 72.1667,76.1667 70.5,75.5C 70.8333,75.5 71.1667,75.5 71.5,75.5C 79.633,73.048 87.2997,69.548 94.5,65C 95.3366,63.9887 95.67,62.8221 95.5,61.5 Z"/></g>
<g><path style="opacity:1" fill="#1f0f11" d="M 95.5,61.5 C 95.67,62.8221 95.3366,63.9887 94.5,65C 87.2997,69.548 79.633,73.048 71.5,75.5C 71.5,73.8333 71.5,72.1667 71.5,70.5C 74.768,68.866 78.1013,67.1993 81.5,65.5C 84.4848,64.6743 87.1515,63.341 89.5,61.5C 91.258,61.1231 92.9246,60.4565 94.5,59.5C 95.2975,59.9569 95.6309,60.6236 95.5,61.5 Z"/></g>
<g><path style="opacity:1" fill="#9b8883" d="M 37.5,66.5 C 40.5293,67.8401 43.5293,69.1734 46.5,70.5C 45.5946,71.9643 45.5946,73.2976 46.5,74.5C 45.8333,74.8333 45.1667,75.1667 44.5,75.5C 44.6309,74.6236 44.2975,73.9569 43.5,73.5C 41.556,72.8108 39.556,72.3108 37.5,72C 36.7476,71.3292 36.4142,70.4959 36.5,69.5C 37.1098,68.609 37.4431,67.609 37.5,66.5 Z"/></g>
<g><path style="opacity:1" fill="#c8efb3" d="M 24.5,70.5 C 27.0101,70.0535 29.0101,70.7202 30.5,72.5C 30.5,72.8333 30.5,73.1667 30.5,73.5C 28.1667,73.5 25.8333,73.5 23.5,73.5C 23.5569,72.391 23.8902,71.391 24.5,70.5 Z"/></g>
<g><path style="opacity:1" fill="#e3dbd7" d="M 36.5,69.5 C 36.4142,70.4959 36.7476,71.3292 37.5,72C 39.556,72.3108 41.556,72.8108 43.5,73.5C 44.2975,73.9569 44.6309,74.6236 44.5,75.5C 43.8333,75.5 43.5,75.8333 43.5,76.5C 42.7777,77.5511 41.7777,78.2178 40.5,78.5C 37.8382,77.5014 35.1716,76.5014 32.5,75.5C 32.1583,74.6618 31.4916,74.3284 30.5,74.5C 30.5,74.1667 30.5,73.8333 30.5,73.5C 30.5,73.1667 30.5,72.8333 30.5,72.5C 32.5,71.5 34.5,70.5 36.5,69.5 Z"/></g>
<g><path style="opacity:1" fill="#5b2f30" d="M 58.5,65.5 C 62.5227,68.0128 66.8561,69.6795 71.5,70.5C 71.5,72.1667 71.5,73.8333 71.5,75.5C 71.1667,75.5 70.8333,75.5 70.5,75.5C 68.1877,74.6805 65.8543,73.8471 63.5,73C 61.8745,70.3723 59.8745,68.039 57.5,66C 57.7284,65.6012 58.0618,65.4346 58.5,65.5 Z"/></g>
<g><path style="opacity:1" fill="#75b862" d="M 23.5,73.5 C 25.8333,73.5 28.1667,73.5 30.5,73.5C 30.5,73.8333 30.5,74.1667 30.5,74.5C 27.6904,76.178 25.357,75.8447 23.5,73.5 Z"/></g>
<g><path style="opacity:1" fill="#251718" d="M 56.5,75.5 C 53.5701,74.701 50.5701,74.3677 47.5,74.5C 50.6245,70.6108 53.6245,70.9441 56.5,75.5 Z"/></g>
<g><path style="opacity:1" fill="#897878" d="M 103.5,69.5 C 101.094,71.9134 98.4277,73.9134 95.5,75.5C 93.8333,74.8333 92.1667,74.1667 90.5,73.5C 90.8333,72.8333 91.1667,72.1667 91.5,71.5C 95.9196,72.8832 99.4196,71.5499 102,67.5C 102.717,68.0442 103.217,68.7109 103.5,69.5 Z"/></g>
<g><path style="opacity:1" fill="#c8bbb9" d="M 103.5,69.5 C 105.359,70.5942 107.359,71.4275 109.5,72C 107.998,72.5831 106.665,73.4164 105.5,74.5C 105.833,75.5 106.5,76.1667 107.5,76.5C 111.735,74.2146 116.069,72.2146 120.5,70.5C 116.636,73.3472 112.636,76.0138 108.5,78.5C 107.833,78.8333 107.167,79.1667 106.5,79.5C 105.432,78.5655 104.099,78.2322 102.5,78.5C 105.129,75.5594 104.462,74.8927 100.5,76.5C 98.5853,76.7845 96.9187,76.4511 95.5,75.5C 98.4277,73.9134 101.094,71.9134 103.5,69.5 Z"/></g>
<g><path style="opacity:1" fill="#725f5e" d="M 120.5,70.5 C 121.625,71.3478 121.625,72.3478 120.5,73.5C 116.723,75.7224 112.723,77.3891 108.5,78.5C 112.636,76.0138 116.636,73.3472 120.5,70.5 Z"/></g>
<g><path style="opacity:1" fill="#c2e8b2" d="M 24.5,78.5 C 24.5,79.1667 24.5,79.8333 24.5,80.5C 21.8333,80.5 19.1667,80.5 16.5,80.5C 15.2089,79.4583 15.2089,78.2917 16.5,77C 18.8333,76.3333 21.1667,76.3333 23.5,77C 24.056,77.3826 24.3893,77.8826 24.5,78.5 Z"/></g>
<g><path style="opacity:1" fill="#51473b" d="M 30.5,76.5 C 30.8417,75.6618 31.5084,75.3284 32.5,75.5C 35.1716,76.5014 37.8382,77.5014 40.5,78.5C 39.8924,81.6344 38.2258,82.3011 35.5,80.5C 34.2921,79.7659 32.9587,79.4326 31.5,79.5C 31.7373,78.209 31.404,77.209 30.5,76.5 Z"/></g>
<g><path style="opacity:1" fill="#a18e8a" d="M 57.5,81.5 C 54.1643,78.5142 50.1643,77.1808 45.5,77.5C 45.6107,76.8826 45.944,76.3826 46.5,76C 51.5983,75.2126 55.9316,76.7126 59.5,80.5C 59.0431,81.2975 58.3764,81.6309 57.5,81.5 Z"/></g>
<g><path style="opacity:1" fill="#421f22" d="M 90.5,73.5 C 92.1667,74.1667 93.8333,74.8333 95.5,75.5C 96.9187,76.4511 98.5853,76.7845 100.5,76.5C 99.6879,77.9931 98.3545,78.6598 96.5,78.5C 94.476,77.9788 92.476,77.8122 90.5,78C 88.6298,80.0396 86.6298,81.8729 84.5,83.5C 86.4887,80.1944 88.4887,76.8611 90.5,73.5 Z"/></g>
<g><path style="opacity:1" fill="#e4e2de" d="M 30.5,76.5 C 31.404,77.209 31.7373,78.209 31.5,79.5C 29.5956,79.7376 28.2623,80.7376 27.5,82.5C 27.5,82.8333 27.5,83.1667 27.5,83.5C 27.5,84.1667 27.5,84.8333 27.5,85.5C 27.2627,86.791 27.596,87.791 28.5,88.5C 28.5912,90.6977 27.9245,91.0311 26.5,89.5C 26.1417,86.3112 25.475,83.3112 24.5,80.5C 24.5,79.8333 24.5,79.1667 24.5,78.5C 26.7028,78.3964 28.7028,77.7298 30.5,76.5 Z"/></g>
<g><path style="opacity:1" fill="#528f43" d="M 16.5,80.5 C 19.1667,80.5 21.8333,80.5 24.5,80.5C 24.0269,81.9063 23.0269,82.573 21.5,82.5C 21.1667,82.5 20.8333,82.5 20.5,82.5C 19.5,82.5 18.5,82.5 17.5,82.5C 17.1667,81.8333 16.8333,81.1667 16.5,80.5 Z"/></g>
<g><path style="opacity:1" fill="#503c3c" d="M 83.5,75.5 C 81.6969,77.4813 80.0303,79.648 78.5,82C 76.1902,82.4966 73.8568,82.6633 71.5,82.5C 71.3426,79.656 72.676,77.9893 75.5,77.5C 77.9279,76.7878 80.2612,75.7878 82.5,74.5C 83.1067,74.6236 83.44,74.9569 83.5,75.5 Z"/></g>
<g><path style="opacity:1" fill="#53403f" d="M 102.5,78.5 C 104.099,78.2322 105.432,78.5655 106.5,79.5C 103.386,81.3908 100.052,82.7241 96.5,83.5C 96.1667,83.5 95.8333,83.5 95.5,83.5C 97.5764,81.4159 99.9097,79.7492 102.5,78.5 Z"/></g>
<g><path style="opacity:1" fill="#d5f8c8" d="M 31.5,79.5 C 32.9587,79.4326 34.2921,79.7659 35.5,80.5C 35.5,81.1667 35.5,81.8333 35.5,82.5C 32.8333,82.5 30.1667,82.5 27.5,82.5C 28.2623,80.7376 29.5956,79.7376 31.5,79.5 Z"/></g>
<g><path style="opacity:1" fill="#261617" d="M 121.5,79.5 C 121.5,80.5 121.5,81.5 121.5,82.5C 118.993,83.8916 116.327,84.8916 113.5,85.5C 111.767,84.9924 111.434,84.159 112.5,83C 115.309,81.2589 118.309,80.0922 121.5,79.5 Z"/></g>
<g><path style="opacity:1" fill="#917f78" d="M 43.5,76.5 C 43.5,77.1667 43.8333,77.5 44.5,77.5C 43.5133,79.4734 42.5133,81.4734 41.5,83.5C 42.981,84.944 42.6477,85.6106 40.5,85.5C 40.631,84.7611 40.4643,84.0944 40,83.5C 38.7012,83.9662 37.2012,83.9662 35.5,83.5C 35.5,83.1667 35.5,82.8333 35.5,82.5C 35.5,81.8333 35.5,81.1667 35.5,80.5C 38.2258,82.3011 39.8924,81.6344 40.5,78.5C 41.7777,78.2178 42.7777,77.5511 43.5,76.5 Z"/></g>
<g><path style="opacity:1" fill="#796662" d="M 98.5,86.5 C 98.5,86.1667 98.5,85.8333 98.5,85.5C 102.076,82.8644 105.742,81.1978 109.5,80.5C 106.295,83.2708 102.628,85.2708 98.5,86.5 Z"/></g>
<g><path style="opacity:1" fill="#81c372" d="M 27.5,83.5 C 27.5,83.1667 27.5,82.8333 27.5,82.5C 30.1667,82.5 32.8333,82.5 35.5,82.5C 35.5,82.8333 35.5,83.1667 35.5,83.5C 35.5,84.1667 35.1667,84.5 34.5,84.5C 32.0504,84.702 29.717,84.3686 27.5,83.5 Z"/></g>
<g><path style="opacity:1" fill="#5e7e4c" d="M 27.5,83.5 C 29.717,84.3686 32.0504,84.702 34.5,84.5C 33.5,85.1667 32.5,85.8333 31.5,86.5C 30.2921,85.7659 28.9587,85.4326 27.5,85.5C 27.5,84.8333 27.5,84.1667 27.5,83.5 Z"/></g>
<g><path style="opacity:1" fill="#7d6d6c" d="M 123.5,84.5 C 122.833,84.8333 122.167,85.1667 121.5,85.5C 121.565,85.0618 121.399,84.7284 121,84.5C 119.22,85.6394 117.386,86.6394 115.5,87.5C 114.833,86.8333 114.167,86.1667 113.5,85.5C 116.327,84.8916 118.993,83.8916 121.5,82.5C 124.457,80.9749 125.124,81.6416 123.5,84.5 Z"/></g>
<g><path style="opacity:1" fill="#efe7e4" d="M 71.5,89.5 C 71.1583,90.3382 70.4916,90.6716 69.5,90.5C 68.0351,89.2632 66.3684,88.2632 64.5,87.5C 63.8836,85.5829 62.5503,84.4162 60.5,84C 64.1516,83.5014 67.8183,83.3347 71.5,83.5C 71.5,85.5 71.5,87.5 71.5,89.5 Z"/></g>
<g><path style="opacity:1" fill="#e3d9d8" d="M 120.5,73.5 C 121.771,75.9339 123.771,77.4339 126.5,78C 125.095,79.2692 123.429,79.7692 121.5,79.5C 118.309,80.0922 115.309,81.2589 112.5,83C 111.434,84.159 111.767,84.9924 113.5,85.5C 114.167,86.1667 114.833,86.8333 115.5,87.5C 112.917,88.2239 110.251,89.0572 107.5,90C 106.837,91.5185 105.837,92.6851 104.5,93.5C 102.486,93.6085 100.82,92.9418 99.5,91.5C 98.8333,89.8333 98.1667,88.1667 97.5,86.5C 97.8333,86.5 98.1667,86.5 98.5,86.5C 102.628,85.2708 106.295,83.2708 109.5,80.5C 105.742,81.1978 102.076,82.8644 98.5,85.5C 97.1667,85.5 96.5,84.8333 96.5,83.5C 100.052,82.7241 103.386,81.3908 106.5,79.5C 107.167,79.1667 107.833,78.8333 108.5,78.5C 112.723,77.3891 116.723,75.7224 120.5,73.5 Z"/></g>
<g><path style="opacity:1" fill="#8ec87b" d="M 27.5,85.5 C 28.9587,85.4326 30.2921,85.7659 31.5,86.5C 31.1667,87.5 30.5,88.1667 29.5,88.5C 29.1667,88.5 28.8333,88.5 28.5,88.5C 27.596,87.791 27.2627,86.791 27.5,85.5 Z"/></g>
<g><path style="opacity:1" fill="#361f1e" d="M 24.5,80.5 C 25.475,83.3112 26.1417,86.3112 26.5,89.5C 25.0057,90.3986 23.5057,90.0653 22,88.5C 21.5045,86.5273 21.3379,84.5273 21.5,82.5C 23.0269,82.573 24.0269,81.9063 24.5,80.5 Z"/></g>
<g><path style="opacity:1" fill="#1d0d0e" d="M 102.5,78.5 C 99.9097,79.7492 97.5764,81.4159 95.5,83.5C 95.5,83.8333 95.5,84.1667 95.5,84.5C 89.7812,83.2778 85.1146,85.1111 81.5,90C 78.135,90.5053 75.135,91.672 72.5,93.5C 71.8333,93.5 71.1667,93.5 70.5,93.5C 70.4431,92.391 70.1098,91.391 69.5,90.5C 70.4916,90.6716 71.1583,90.3382 71.5,89.5C 76.1112,87.9433 80.4445,85.9433 84.5,83.5C 86.6298,81.8729 88.6298,80.0396 90.5,78C 92.476,77.8122 94.476,77.9788 96.5,78.5C 98.3545,78.6598 99.6879,77.9931 100.5,76.5C 104.462,74.8927 105.129,75.5594 102.5,78.5 Z"/></g>
<g><path style="opacity:1" fill="#c79f9a" d="M 20.5,82.5 C 20.8333,82.5 21.1667,82.5 21.5,82.5C 21.3379,84.5273 21.5045,86.5273 22,88.5C 23.5057,90.0653 25.0057,90.3986 26.5,89.5C 27.9245,91.0311 28.5912,90.6977 28.5,88.5C 28.8333,88.5 29.1667,88.5 29.5,88.5C 28.9162,91.285 29.9162,92.9517 32.5,93.5C 34.9327,93.7856 34.9327,94.4523 32.5,95.5C 27.9546,93.6357 23.6213,91.3023 19.5,88.5C 20.4614,86.7354 20.7947,84.7354 20.5,82.5 Z"/></g>
<g><path style="opacity:1" fill="#4b2527" d="M 59.5,85.5 C 61.0495,86.4408 62.7162,87.1075 64.5,87.5C 66.3684,88.2632 68.0351,89.2632 69.5,90.5C 70.1098,91.391 70.4431,92.391 70.5,93.5C 66.9255,92.7107 63.5921,91.3774 60.5,89.5C 59.7222,88.8444 59.0556,88.0111 58.5,87C 58.5699,86.2352 58.9033,85.7352 59.5,85.5 Z"/></g>
<g><path style="opacity:1" fill="#8c514d" d="M 97.5,86.5 C 98.1667,88.1667 98.8333,89.8333 99.5,91.5C 96.7543,89.8736 93.7543,89.2069 90.5,89.5C 92.4261,87.7073 94.7594,86.7073 97.5,86.5 Z"/></g>
<g><path style="opacity:1" fill="#54403a" d="M 35.5,83.5 C 37.2012,83.9662 38.7012,83.9662 40,83.5C 40.4643,84.0944 40.631,84.7611 40.5,85.5C 39.2617,85.81 39.2617,86.31 40.5,87C 39.9056,87.4643 39.2389,87.631 38.5,87.5C 38.631,86.7611 38.4643,86.0944 38,85.5C 36.3909,88.4068 34.5576,91.0734 32.5,93.5C 29.9162,92.9517 28.9162,91.285 29.5,88.5C 30.5,88.1667 31.1667,87.5 31.5,86.5C 32.5,85.8333 33.5,85.1667 34.5,84.5C 35.1667,84.5 35.5,84.1667 35.5,83.5 Z"/></g>
<g><path style="opacity:1" fill="#ebe2e0" d="M 123.5,84.5 C 127.446,85.4588 130.113,87.7921 131.5,91.5C 131.5,92.8333 131.5,94.1667 131.5,95.5C 127.458,99.19 122.791,101.857 117.5,103.5C 116.475,103.103 116.308,102.437 117,101.5C 122.122,99.5588 123.622,96.2254 121.5,91.5C 121.5,89.5 121.5,87.5 121.5,85.5C 122.167,85.1667 122.833,84.8333 123.5,84.5 Z"/></g>
<g><path style="opacity:1" fill="#d8c9c3" d="M 44.5,77.5 C 44.8333,77.5 45.1667,77.5 45.5,77.5C 50.1643,77.1808 54.1643,78.5142 57.5,81.5C 52.4734,89.7132 47.8067,98.2132 43.5,107C 43.8361,108.03 44.5028,108.53 45.5,108.5C 44.791,109.404 43.791,109.737 42.5,109.5C 42.719,108.325 42.3857,107.325 41.5,106.5C 37.9075,103.902 34.0741,102.902 30,103.5C 28.7955,102.141 27.2955,101.141 25.5,100.5C 26.1925,99.4822 26.8592,98.4822 27.5,97.5C 28.552,97.3505 29.552,97.5172 30.5,98C 31.1122,99.3033 31.4455,100.47 31.5,101.5C 32.354,100.478 33.354,99.6449 34.5,99C 34.1667,98.6667 33.8333,98.3333 33.5,98C 35.8833,97.935 36.55,97.1017 35.5,95.5C 37.0761,93.0207 38.0761,90.354 38.5,87.5C 39.2389,87.631 39.9056,87.4643 40.5,87C 39.2617,86.31 39.2617,85.81 40.5,85.5C 42.6477,85.6106 42.981,84.944 41.5,83.5C 42.5133,81.4734 43.5133,79.4734 44.5,77.5 Z"/></g>
<g><path style="opacity:1" fill="#9a4e52" d="M 19.5,88.5 C 23.6213,91.3023 27.9546,93.6357 32.5,95.5C 31.0813,96.4511 29.4147,96.7845 27.5,96.5C 24.3408,94.9205 21.0075,93.9205 17.5,93.5C 17.2011,91.396 17.5344,89.396 18.5,87.5C 19.1067,87.6236 19.44,87.9569 19.5,88.5 Z"/></g>
<g><path style="opacity:1" fill="#b1a29d" d="M 60.5,89.5 C 63.5921,91.3774 66.9255,92.7107 70.5,93.5C 71.1667,93.5 71.8333,93.5 72.5,93.5C 73.552,93.3505 74.552,93.5172 75.5,94C 74.1416,94.9344 72.8083,95.7677 71.5,96.5C 67.9368,95.7176 64.6035,94.3843 61.5,92.5C 58.4949,91.6247 58.1616,90.6247 60.5,89.5 Z"/></g>
<g><path style="opacity:1" fill="#351016" d="M 121.5,85.5 C 121.5,87.5 121.5,89.5 121.5,91.5C 121.5,92.1667 121.5,92.8333 121.5,93.5C 116.219,93.4435 112.886,95.7768 111.5,100.5C 110.835,98.6309 110.169,96.6309 109.5,94.5C 108.205,95.0983 106.872,95.5983 105.5,96C 104.556,98.7191 104.223,101.552 104.5,104.5C 104.167,104.5 103.833,104.5 103.5,104.5C 103.244,100.731 103.577,97.0641 104.5,93.5C 105.837,92.6851 106.837,91.5185 107.5,90C 110.251,89.0572 112.917,88.2239 115.5,87.5C 117.386,86.6394 119.22,85.6394 121,84.5C 121.399,84.7284 121.565,85.0618 121.5,85.5 Z"/></g>
<g><path style="opacity:1" fill="#8d736d" d="M 38.5,87.5 C 38.0761,90.354 37.0761,93.0207 35.5,95.5C 36.55,97.1017 35.8833,97.935 33.5,98C 33.8333,98.3333 34.1667,98.6667 34.5,99C 33.354,99.6449 32.354,100.478 31.5,101.5C 31.4455,100.47 31.1122,99.3033 30.5,98C 29.552,97.5172 28.552,97.3505 27.5,97.5C 27.5,97.1667 27.5,96.8333 27.5,96.5C 29.4147,96.7845 31.0813,96.4511 32.5,95.5C 34.9327,94.4523 34.9327,93.7856 32.5,93.5C 34.5576,91.0734 36.3909,88.4068 38,85.5C 38.4643,86.0944 38.631,86.7611 38.5,87.5 Z"/></g>
<g><path style="opacity:1" fill="#877572" d="M 95.5,83.5 C 95.8333,83.5 96.1667,83.5 96.5,83.5C 96.5,84.8333 97.1667,85.5 98.5,85.5C 98.5,85.8333 98.5,86.1667 98.5,86.5C 98.1667,86.5 97.8333,86.5 97.5,86.5C 94.7594,86.7073 92.4261,87.7073 90.5,89.5C 89.6317,92.4547 89.965,95.4547 91.5,98.5C 90.9232,100.652 89.7565,100.985 88,99.5C 86.0651,96.093 85.2318,92.4264 85.5,88.5C 88.9937,87.4652 92.327,86.1319 95.5,84.5C 95.5,84.1667 95.5,83.8333 95.5,83.5 Z"/></g>
<g><path style="opacity:1" fill="#642d2f" d="M 90.5,89.5 C 93.7543,89.2069 96.7543,89.8736 99.5,91.5C 100.82,92.9418 102.486,93.6085 104.5,93.5C 103.577,97.0641 103.244,100.731 103.5,104.5C 102.833,104.5 102.167,104.5 101.5,104.5C 101.768,101.881 101.435,99.3806 100.5,97C 98.3853,96.4427 96.3853,95.6094 94.5,94.5C 93.5713,95.6888 93.238,97.0222 93.5,98.5C 92.8333,98.5 92.1667,98.5 91.5,98.5C 89.965,95.4547 89.6317,92.4547 90.5,89.5 Z"/></g>
<g><path style="opacity:1" fill="#6c5853" d="M 61.5,92.5 C 64.6035,94.3843 67.9368,95.7176 71.5,96.5C 71.5,97.5 71.5,98.5 71.5,99.5C 70.0413,99.5674 68.7079,99.2341 67.5,98.5C 64.5262,97.1599 62.1928,97.8265 60.5,100.5C 60.5,100.833 60.5,101.167 60.5,101.5C 59.5,102.167 58.5,102.833 57.5,103.5C 57.1667,103.5 56.8333,103.5 56.5,103.5C 57.1257,99.2746 58.7923,95.608 61.5,92.5 Z"/></g>
<g><path style="opacity:1" fill="#ebe8e7" d="M 67.5,98.5 C 65.5615,100.163 63.2282,100.829 60.5,100.5C 62.1928,97.8265 64.5262,97.1599 67.5,98.5 Z"/></g>
<g><path style="opacity:1" fill="#332427" d="M 101.5,104.5 C 100.391,104.557 99.391,104.89 98.5,105.5C 98.7989,103.396 98.4656,101.396 97.5,99.5C 96.7348,100.612 95.7348,101.279 94.5,101.5C 93.596,100.791 93.2627,99.791 93.5,98.5C 93.238,97.0222 93.5713,95.6888 94.5,94.5C 96.3853,95.6094 98.3853,96.4427 100.5,97C 101.435,99.3806 101.768,101.881 101.5,104.5 Z"/></g>
<g><path style="opacity:1" fill="#332324" d="M 111.5,100.5 C 109.65,102.572 107.317,103.905 104.5,104.5C 104.223,101.552 104.556,98.7191 105.5,96C 106.872,95.5983 108.205,95.0983 109.5,94.5C 110.169,96.6309 110.835,98.6309 111.5,100.5 Z"/></g>
<g><path style="opacity:1" fill="#4e3d39" d="M 58.5,84.5 C 59.1667,84.5 59.5,84.8333 59.5,85.5C 58.9033,85.7352 58.5699,86.2352 58.5,87C 59.0556,88.0111 59.7222,88.8444 60.5,89.5C 58.1616,90.6247 58.4949,91.6247 61.5,92.5C 58.7923,95.608 57.1257,99.2746 56.5,103.5C 54.5,104.167 52.5,104.833 50.5,105.5C 50.2049,102.647 50.2049,99.8142 50.5,97C 53.0663,92.6839 55.7329,88.5172 58.5,84.5 Z"/></g>
<g><path style="opacity:1" fill="#97847d" d="M 67.5,98.5 C 68.7079,99.2341 70.0413,99.5674 71.5,99.5C 71.5,100.167 71.8333,100.5 72.5,100.5C 72.1667,101.5 71.5,102.167 70.5,102.5C 67.0977,102.658 63.7644,102.324 60.5,101.5C 60.5,101.167 60.5,100.833 60.5,100.5C 63.2282,100.829 65.5615,100.163 67.5,98.5 Z"/></g>
<g><path style="opacity:1" fill="#433332" d="M 95.5,84.5 C 92.327,86.1319 88.9937,87.4652 85.5,88.5C 83.6846,89.7908 82.6846,91.6241 82.5,94C 83.2781,97.155 83.4448,100.322 83,103.5C 82.3292,104.252 81.4959,104.586 80.5,104.5C 80.6716,103.508 80.3382,102.842 79.5,102.5C 77.5615,100.837 75.2282,100.171 72.5,100.5C 71.8333,100.5 71.5,100.167 71.5,99.5C 71.5,98.5 71.5,97.5 71.5,96.5C 72.8083,95.7677 74.1416,94.9344 75.5,94C 74.552,93.5172 73.552,93.3505 72.5,93.5C 75.135,91.672 78.135,90.5053 81.5,90C 85.1146,85.1111 89.7812,83.2778 95.5,84.5 Z"/></g>
<g><path style="opacity:1" fill="#ae9b99" d="M 121.5,93.5 C 121.649,94.552 121.483,95.552 121,96.5C 117.535,98.9626 114.369,101.796 111.5,105C 106.816,105.435 102.149,105.935 97.5,106.5C 97.5,105.833 97.8333,105.5 98.5,105.5C 99.391,104.89 100.391,104.557 101.5,104.5C 102.167,104.5 102.833,104.5 103.5,104.5C 103.833,104.5 104.167,104.5 104.5,104.5C 107.317,103.905 109.65,102.572 111.5,100.5C 112.886,95.7768 116.219,93.4435 121.5,93.5 Z"/></g>
<g><path style="opacity:1" fill="#f7f0ec" d="M 17.5,82.5 C 18.5,82.5 19.5,82.5 20.5,82.5C 20.7947,84.7354 20.4614,86.7354 19.5,88.5C 19.44,87.9569 19.1067,87.6236 18.5,87.5C 17.5344,89.396 17.2011,91.396 17.5,93.5C 21.0075,93.9205 24.3408,94.9205 27.5,96.5C 27.5,96.8333 27.5,97.1667 27.5,97.5C 26.8592,98.4822 26.1925,99.4822 25.5,100.5C 27.2955,101.141 28.7955,102.141 30,103.5C 34.0741,102.902 37.9075,103.902 41.5,106.5C 42.3857,107.325 42.719,108.325 42.5,109.5C 43.791,109.737 44.791,109.404 45.5,108.5C 45.8333,108.5 46.1667,108.5 46.5,108.5C 48.4008,108.567 50.2341,108.233 52,107.5C 53.0111,108.056 53.8444,108.722 54.5,109.5C 57.3208,111.277 59.9875,113.277 62.5,115.5C 65.7254,116.237 69.0588,116.903 72.5,117.5C 73.9464,118.613 75.6131,118.78 77.5,118C 83.1122,115.861 88.4455,113.194 93.5,110C 98.6782,109.472 103.678,108.305 108.5,106.5C 109.107,106.624 109.44,106.957 109.5,107.5C 98.612,113.613 87.2786,118.613 75.5,122.5C 69.4908,122.666 63.4908,122.499 57.5,122C 42.7438,115.457 28.0771,108.623 13.5,101.5C 11.9918,99.4925 10.1584,97.8259 8,96.5C 7.50649,94.8659 7.33982,93.1992 7.5,91.5C 8.20261,89.2843 9.53594,87.451 11.5,86C 13.7274,85.059 15.7274,83.8923 17.5,82.5 Z"/></g>
<g><path style="opacity:1" fill="#604c48" d="M 46.5,74.5 C 46.8333,74.5 47.1667,74.5 47.5,74.5C 50.5701,74.3677 53.5701,74.701 56.5,75.5C 57.6049,76.6005 58.9382,77.2671 60.5,77.5C 61.609,77.4431 62.609,77.1098 63.5,76.5C 71.4892,79.8564 70.8225,81.3564 61.5,81C 60.2899,82.0391 59.2899,83.2058 58.5,84.5C 55.7329,88.5172 53.0663,92.6839 50.5,97C 50.2049,99.8142 50.2049,102.647 50.5,105.5C 49.1667,106.5 47.8333,107.5 46.5,108.5C 46.1667,108.5 45.8333,108.5 45.5,108.5C 44.5028,108.53 43.8361,108.03 43.5,107C 47.8067,98.2132 52.4734,89.7132 57.5,81.5C 58.3764,81.6309 59.0431,81.2975 59.5,80.5C 55.9316,76.7126 51.5983,75.2126 46.5,76C 45.944,76.3826 45.6107,76.8826 45.5,77.5C 45.1667,77.5 44.8333,77.5 44.5,77.5C 43.8333,77.5 43.5,77.1667 43.5,76.5C 43.5,75.8333 43.8333,75.5 44.5,75.5C 45.1667,75.1667 45.8333,74.8333 46.5,74.5 Z"/></g>
<g><path style="opacity:1" fill="#6d5b58" d="M 85.5,88.5 C 85.2318,92.4264 86.0651,96.093 88,99.5C 89.7565,100.985 90.9232,100.652 91.5,98.5C 92.1667,98.5 92.8333,98.5 93.5,98.5C 93.2627,99.791 93.596,100.791 94.5,101.5C 92.703,102.393 91.3696,103.726 90.5,105.5C 89.8333,105.5 89.1667,105.5 88.5,105.5C 86.1432,105.337 83.8098,105.503 81.5,106C 80.9341,106.995 80.2674,107.828 79.5,108.5C 79.5,107.833 79.1667,107.5 78.5,107.5C 79.1667,106.5 79.8333,105.5 80.5,104.5C 81.4959,104.586 82.3292,104.252 83,103.5C 83.4448,100.322 83.2781,97.155 82.5,94C 82.6846,91.6241 83.6846,89.7908 85.5,88.5 Z"/></g>
<g><path style="opacity:1" fill="#e9dfdd" d="M 60.5,101.5 C 63.7644,102.324 67.0977,102.658 70.5,102.5C 69.8902,103.391 69.5569,104.391 69.5,105.5C 68.1667,106.5 66.8333,107.5 65.5,108.5C 63.3792,108.675 61.3792,108.341 59.5,107.5C 58.6587,106.991 58.1587,107.657 58,109.5C 56.8118,108.437 56.3118,107.103 56.5,105.5C 56.8333,104.833 57.1667,104.167 57.5,103.5C 58.5,102.833 59.5,102.167 60.5,101.5 Z"/></g>
<g><path style="opacity:1" fill="#c4f0b2" d="M 72.5,100.5 C 75.2282,100.171 77.5615,100.837 79.5,102.5C 79.5299,103.497 79.0299,104.164 78,104.5C 75.5661,105.322 73.0661,105.656 70.5,105.5C 70.1667,105.5 69.8333,105.5 69.5,105.5C 69.5569,104.391 69.8902,103.391 70.5,102.5C 71.5,102.167 72.1667,101.5 72.5,100.5 Z"/></g>
<g><path style="opacity:1" fill="#669d58" d="M 79.5,102.5 C 80.3382,102.842 80.6716,103.508 80.5,104.5C 79.8333,105.5 79.1667,106.5 78.5,107.5C 76.1432,107.663 73.8098,107.497 71.5,107C 70.944,106.617 70.6107,106.117 70.5,105.5C 73.0661,105.656 75.5661,105.322 78,104.5C 79.0299,104.164 79.5299,103.497 79.5,102.5 Z"/></g>
<g><path style="opacity:1" fill="#624d49" d="M 131.5,91.5 C 132.833,96.1667 132.833,100.833 131.5,105.5C 129.146,105.838 126.813,106.338 124.5,107C 114.992,111.283 105.658,115.95 96.5,121C 94.1218,121.511 91.7885,122.178 89.5,123C 84.088,125.792 79.088,129.126 74.5,133C 69.8452,133.499 65.1785,133.666 60.5,133.5C 57.4582,133.267 54.7916,132.267 52.5,130.5C 62.7697,133.436 71.4364,131.102 78.5,123.5C 95.0462,116.562 111.38,109.062 127.5,101C 129.464,99.549 130.797,97.7157 131.5,95.5C 131.5,94.1667 131.5,92.8333 131.5,91.5 Z"/></g>
<g><path style="opacity:1" fill="#743a3b" d="M 98.5,105.5 C 97.8333,105.5 97.5,105.833 97.5,106.5C 89.2497,110.361 80.9163,114.028 72.5,117.5C 72.5,115.833 72.5,114.167 72.5,112.5C 74.2624,112.643 75.9291,112.309 77.5,111.5C 77.8333,112.167 78.1667,112.833 78.5,113.5C 80.9042,112.992 81.5709,111.825 80.5,110C 81.745,109.209 83.0783,108.709 84.5,108.5C 85.8333,107.5 87.1667,106.5 88.5,105.5C 89.1667,105.5 89.8333,105.5 90.5,105.5C 91.3696,103.726 92.703,102.393 94.5,101.5C 95.7348,101.279 96.7348,100.612 97.5,99.5C 98.4656,101.396 98.7989,103.396 98.5,105.5 Z"/></g>
<g><path style="opacity:1" fill="#c6aba7" d="M 90.5,105.5 C 91.3764,105.369 92.0431,105.702 92.5,106.5C 88.7505,109.303 88.0838,108.97 90.5,105.5 Z"/></g>
<g><path style="opacity:1" fill="#b59e9a" d="M 7.5,91.5 C 7.33982,93.1992 7.50649,94.8659 8,96.5C 10.1584,97.8259 11.9918,99.4925 13.5,101.5C 28.0771,108.623 42.7438,115.457 57.5,122C 63.4908,122.499 69.4908,122.666 75.5,122.5C 67.8186,123.768 59.9853,123.768 52,122.5C 47.235,119.928 42.0683,118.095 36.5,117C 28.5,113.667 20.5,110.333 12.5,107C 11.0715,106.421 9.7382,106.588 8.5,107.5C 7.5592,105.95 6.89254,104.284 6.5,102.5C 6.18503,98.6286 6.51836,94.9619 7.5,91.5 Z"/></g>
<g><path style="opacity:1" fill="#bf9f9a" d="M 56.5,103.5 C 56.8333,103.5 57.1667,103.5 57.5,103.5C 57.1667,104.167 56.8333,104.833 56.5,105.5C 55.8826,105.389 55.3826,105.056 55,104.5C 54.5065,106.134 54.3398,107.801 54.5,109.5C 53.8444,108.722 53.0111,108.056 52,107.5C 50.2341,108.233 48.4008,108.567 46.5,108.5C 47.8333,107.5 49.1667,106.5 50.5,105.5C 52.5,104.833 54.5,104.167 56.5,103.5 Z"/></g>
<g><path style="opacity:1" fill="#9c5657" d="M 56.5,105.5 C 56.3118,107.103 56.8118,108.437 58,109.5C 58.1587,107.657 58.6587,106.991 59.5,107.5C 59.5,109.167 59.5,110.833 59.5,112.5C 60.8333,112.5 62.1667,112.5 63.5,112.5C 63.5,113.5 63.5,114.5 63.5,115.5C 63.1667,115.5 62.8333,115.5 62.5,115.5C 59.9875,113.277 57.3208,111.277 54.5,109.5C 54.3398,107.801 54.5065,106.134 55,104.5C 55.3826,105.056 55.8826,105.389 56.5,105.5 Z"/></g>
<g><path style="opacity:1" fill="#54403d" d="M 69.5,105.5 C 69.8333,105.5 70.1667,105.5 70.5,105.5C 70.6107,106.117 70.944,106.617 71.5,107C 73.8098,107.497 76.1432,107.663 78.5,107.5C 79.1667,107.5 79.5,107.833 79.5,108.5C 77.1667,109.833 74.8333,111.167 72.5,112.5C 70.7839,112.629 69.1172,112.962 67.5,113.5C 67.9227,111.219 67.256,109.552 65.5,108.5C 66.8333,107.5 68.1667,106.5 69.5,105.5 Z"/></g>
<g><path style="opacity:1" fill="#c99593" d="M 88.5,105.5 C 87.1667,106.5 85.8333,107.5 84.5,108.5C 83.0783,108.709 81.745,109.209 80.5,110C 81.5709,111.825 80.9042,112.992 78.5,113.5C 78.1667,112.833 77.8333,112.167 77.5,111.5C 75.9291,112.309 74.2624,112.643 72.5,112.5C 74.8333,111.167 77.1667,109.833 79.5,108.5C 80.2674,107.828 80.9341,106.995 81.5,106C 83.8098,105.503 86.1432,105.337 88.5,105.5 Z"/></g>
<g><path style="opacity:1" fill="#4a3532" d="M 131.5,105.5 C 131.5,106.167 131.5,106.833 131.5,107.5C 130.038,108.458 128.705,109.624 127.5,111C 110.876,119.478 93.8762,127.145 76.5,134C 70.9836,134.817 65.6503,134.651 60.5,133.5C 65.1785,133.666 69.8452,133.499 74.5,133C 79.088,129.126 84.088,125.792 89.5,123C 91.7885,122.178 94.1218,121.511 96.5,121C 105.658,115.95 114.992,111.283 124.5,107C 126.813,106.338 129.146,105.838 131.5,105.5 Z"/></g>
<g><path style="opacity:1" fill="#7c6763" d="M 9.5,108.5 C 18.7073,112.102 27.7073,116.269 36.5,121C 37.3805,121.708 38.0472,122.542 38.5,123.5C 28.8958,119.697 19.5625,115.364 10.5,110.5C 10.1667,109.833 9.83333,109.167 9.5,108.5 Z"/></g>
<g><path style="opacity:1" fill="#d7cac6" d="M 121.5,91.5 C 123.622,96.2254 122.122,99.5588 117,101.5C 116.308,102.437 116.475,103.103 117.5,103.5C 115.151,105.341 112.485,106.674 109.5,107.5C 109.44,106.957 109.107,106.624 108.5,106.5C 103.678,108.305 98.6782,109.472 93.5,110C 88.4455,113.194 83.1122,115.861 77.5,118C 75.6131,118.78 73.9464,118.613 72.5,117.5C 80.9163,114.028 89.2497,110.361 97.5,106.5C 102.149,105.935 106.816,105.435 111.5,105C 114.369,101.796 117.535,98.9626 121,96.5C 121.483,95.552 121.649,94.552 121.5,93.5C 121.5,92.8333 121.5,92.1667 121.5,91.5 Z"/></g>
<g><path style="opacity:1" fill="#9f8884" d="M 131.5,95.5 C 130.797,97.7157 129.464,99.549 127.5,101C 111.38,109.062 95.0462,116.562 78.5,123.5C 71.7643,124.147 65.2643,125.481 59,127.5C 54.509,127.309 50.3423,126.142 46.5,124C 43.854,123.503 41.1873,123.336 38.5,123.5C 38.0472,122.542 37.3805,121.708 36.5,121C 27.7073,116.269 18.7073,112.102 9.5,108.5C 8.83333,108.5 8.5,108.167 8.5,107.5C 9.7382,106.588 11.0715,106.421 12.5,107C 20.5,110.333 28.5,113.667 36.5,117C 42.0683,118.095 47.235,119.928 52,122.5C 59.9853,123.768 67.8186,123.768 75.5,122.5C 87.2786,118.613 98.612,113.613 109.5,107.5C 112.485,106.674 115.151,105.341 117.5,103.5C 122.791,101.857 127.458,99.19 131.5,95.5 Z"/></g>
<g><path style="opacity:1" fill="#521f23" d="M 59.5,107.5 C 61.3792,108.341 63.3792,108.675 65.5,108.5C 67.256,109.552 67.9227,111.219 67.5,113.5C 66.3285,114.345 64.9952,115.011 63.5,115.5C 63.5,114.5 63.5,113.5 63.5,112.5C 62.1667,112.5 60.8333,112.5 59.5,112.5C 59.5,110.833 59.5,109.167 59.5,107.5 Z"/></g>
<g><path style="opacity:1" fill="#997e77" d="M 49.5,109.5 C 52.0118,110.216 52.0118,111.216 49.5,112.5C 48.4376,111.575 48.4376,110.575 49.5,109.5 Z"/></g>
<g><path style="opacity:1" fill="#e2d2d0" d="M 84.5,108.5 C 86.9752,108.747 86.9752,109.413 84.5,110.5C 83.537,110.03 83.537,109.363 84.5,108.5 Z"/></g>
<g><path style="opacity:0.985" fill="#18171e" d="M 14.5,115.5 C 29.8885,122.024 45.2218,128.857 60.5,136C 69.7825,138.687 79.1158,139.02 88.5,137C 99.9626,132.345 111.296,127.511 122.5,122.5C 116.891,128.641 110.225,133.308 102.5,136.5C 96.6687,137.501 91.0021,139.001 85.5,141C 79.1667,141.667 72.8333,141.667 66.5,141C 57.6072,138.258 48.6072,135.925 39.5,134C 34.3012,129.23 28.3012,125.73 21.5,123.5C 18.4503,121.451 16.117,118.784 14.5,115.5 Z"/></g>
<g><path style="opacity:1" fill="#0c0a10" d="M 131.5,107.5 C 131.5,108.833 131.5,110.167 131.5,111.5C 129.207,115.758 126.207,119.424 122.5,122.5C 111.296,127.511 99.9626,132.345 88.5,137C 79.1158,139.02 69.7825,138.687 60.5,136C 45.2218,128.857 29.8885,122.024 14.5,115.5C 12.9373,114.055 11.604,112.389 10.5,110.5C 19.5625,115.364 28.8958,119.697 38.5,123.5C 42.8489,126.341 47.5156,128.674 52.5,130.5C 54.7916,132.267 57.4582,133.267 60.5,133.5C 65.6503,134.651 70.9836,134.817 76.5,134C 93.8762,127.145 110.876,119.478 127.5,111C 128.705,109.624 130.038,108.458 131.5,107.5 Z"/></g>
<g><path style="opacity:1" fill="#c1ada7" d="M 72.5,112.5 C 72.5,114.167 72.5,115.833 72.5,117.5C 69.0588,116.903 65.7254,116.237 62.5,115.5C 62.8333,115.5 63.1667,115.5 63.5,115.5C 64.9952,115.011 66.3285,114.345 67.5,113.5C 69.1172,112.962 70.7839,112.629 72.5,112.5 Z"/></g>
<g><path style="opacity:1" fill="#846e69" d="M 38.5,123.5 C 41.1873,123.336 43.854,123.503 46.5,124C 50.3423,126.142 54.509,127.309 59,127.5C 65.2643,125.481 71.7643,124.147 78.5,123.5C 71.4364,131.102 62.7697,133.436 52.5,130.5C 47.5156,128.674 42.8489,126.341 38.5,123.5 Z"/></g>
<g><path style="opacity:0.904" fill="#292730" d="M 21.5,123.5 C 28.3012,125.73 34.3012,129.23 39.5,134C 48.6072,135.925 57.6072,138.258 66.5,141C 72.8333,141.667 79.1667,141.667 85.5,141C 91.0021,139.001 96.6687,137.501 102.5,136.5C 96.5132,139.828 90.1799,142.162 83.5,143.5C 75.5,143.5 67.5,143.5 59.5,143.5C 44.8778,140.522 32.2111,133.856 21.5,123.5 Z"/></g>
</svg>
